<svg id="Capa_1" enable-background="new 0 0 512 512" height="512" viewBox="0 0 512 512" width="512" xmlns="http://www.w3.org/2000/svg"><g><path d="m166.127 132.204v-15.128c0-4.143-3.358-7.5-7.5-7.5s-7.5 3.357-7.5 7.5v15.128c0 4.142 3.358 7.5 7.5 7.5s7.5-3.358 7.5-7.5z"/><path d="m323.582 132.204v-15.128c0-4.143-3.358-7.5-7.5-7.5s-7.5 3.357-7.5 7.5v15.128c0 4.142 3.358 7.5 7.5 7.5s7.5-3.358 7.5-7.5z"/><path d="m263.765 136.682c2.721-3.123 2.396-7.86-.727-10.582s-7.86-2.396-10.582.727c-7.982 9.161-22.198 9.187-30.204 0-2.722-3.123-7.459-3.447-10.582-.727-3.123 2.722-3.448 7.459-.727 10.582 13.98 16.038 38.859 16.02 52.822 0z"/><path d="m137.001 70.777c3.12-2.725 3.441-7.462.717-10.582s-7.462-3.441-10.582-.717c-36.504 31.874-57.439 77.919-57.439 126.332v3.198c-17.915 3.507-31.477 19.319-31.477 38.245v21.5c0 19.171 13.916 35.142 32.175 38.37.377 3.489 16.54 153.075 16.551 153.182 4.421 40.873 38.753 71.695 79.86 71.695h141.099c41.107 0 75.439-30.822 79.859-71.696 10.452-96.738 3.27-30.309 16.551-153.181 18.259-3.229 32.175-19.199 32.175-38.37v-21.5c0-18.926-13.562-34.738-31.477-38.245v-3.198c0-37.332-12.27-71.849-32.981-99.741l20.731-20.731c6.348-6.348 14.788-9.843 23.764-9.843h35.452c12.021 0 21.801-9.78 21.801-21.801v-11.893c0-12.021-9.78-21.801-21.801-21.801h-35.452c-23.799 0-46.174 9.268-63.003 26.097l-21.451 21.451c-26.967-18.532-59.595-29.396-94.718-29.396-29.684 0-58.862 7.87-84.378 22.761-3.578 2.087-4.786 6.68-2.698 10.258s6.68 4.785 10.258 2.697c23.225-13.552 49.788-20.716 76.819-20.716 84.176 0 152.658 68.482 152.658 152.658v2.467h-305.317v-2.467c0-44.081 19.064-86.009 52.304-115.033zm227.129-34.074c13.997-13.995 32.605-21.703 52.397-21.703h35.452c3.75 0 6.801 3.051 6.801 6.801v11.892c0 3.75-3.051 6.801-6.801 6.801h-35.452c-12.983 0-25.189 5.056-34.371 14.236l-19.593 19.594c-5.666-6.36-11.802-12.282-18.349-17.705zm8.72 401.989c-3.594 33.241-31.515 58.308-64.946 58.308h-141.098c-33.431 0-61.351-25.067-64.946-58.307l-9.392-86.941c83.968-39.844 109.142-16.686 178.416-2.649 4.06.823 8.017-1.802 8.84-5.861.823-4.06-1.801-8.018-5.861-8.84-64.657-13.102-96.979-37.778-183.097 1.601l-5.218-48.273h303.613l-5.681 52.561c-27.018 1.959-54.265 1.921-81.133-1.292-3.704-.444-7.031 1.934-8.019 5.117-1.387 4.257 1.143 9.166 6.594 9.817 26.79 3.177 53.526 3.305 79.924 1.573.333-.022.663-.04.997-.063zm48.64-211.439v21.5c0 13.214-10.746 23.966-23.959 23.976-.005 0-.01-.001-.015-.001-2.932 0-322.987.001-320.337.001-13.212-.01-23.959-10.761-23.959-23.976v-21.5c0-13.22 10.754-23.975 23.973-23.976h.003 320.316.003c13.221.001 23.975 10.757 23.975 23.976z"/><path d="m305.005 374.35c-12.754 0-24.851 5.028-33.834 13.758-8.751-8.505-20.679-13.758-33.816-13.758-13.138 0-25.066 5.252-33.817 13.758-8.983-8.73-21.08-13.758-33.834-13.758-26.776 0-48.56 21.784-48.56 48.56s21.784 48.561 48.56 48.561c12.754 0 24.851-5.028 33.834-13.758 8.751 8.505 20.679 13.758 33.816 13.758s25.066-5.253 33.816-13.758c8.983 8.73 21.08 13.758 33.834 13.758 26.776 0 48.56-21.784 48.56-48.561s-21.783-48.56-48.559-48.56zm-135.3 82.121c-18.505 0-33.56-15.055-33.56-33.561 0-18.505 15.055-33.56 33.56-33.56 9.456 0 18.399 3.993 24.715 10.867-3.544 6.679-5.625 14.603-5.625 22.693 0 8.044 2.068 15.997 5.625 22.693-6.316 6.875-15.26 10.868-24.715 10.868zm67.65 0c-18.493 0-33.56-15.048-33.56-33.561 0-18.505 15.088-33.56 33.56-33.56 18.489 0 33.56 15.046 33.56 33.56 0 18.486-15.057 33.561-33.56 33.561zm67.65 0c-9.456 0-18.399-3.993-24.715-10.867 3.646-6.865 5.625-14.841 5.625-22.693 0-7.854-1.967-15.798-5.625-22.693 6.316-6.874 15.259-10.867 24.715-10.867 18.505 0 33.56 15.055 33.56 33.56s-15.055 33.56-33.56 33.56z"/></g></svg>